# xmcd CD database file
#
# Track frame offsets:
#	150
#	22424
#	33859
#	54058
#	81515
#	131033
#
# Disc length: 2501 seconds
#
# Revision: 0
# Processed by: cddbd v1.5.2PL0 Copyright (c) Steve Scherf et al.
# Submitted via: CDex 1.70beta2
#
DISCID=4a09c306
DTITLE=Key - Key
DYEAR=1977
DGENRE=Jazz
TTITLE0=Please be good to me
TTITLE1=Wolkenhaus
TTITLE2=In Jubilo
TTITLE3=Birds flying 
TTITLE4=Song for Renate
TTITLE5=Rheda
EXTD=YEAR: 1977
EXTT0=
EXTT1=
EXTT2=
EXTT3=
EXTT4=
EXTT5=
PLAYORDER=
